<?xml version="1.0" standalone="no"?>
<!DOCTYPE svg PUBLIC "-//W3C//DTD SVG 20010904//EN"
 "http://www.w3.org/TR/2001/REC-SVG-20010904/DTD/svg10.dtd">
<svg version="1.0" xmlns="http://www.w3.org/2000/svg"
 width="200.000000pt" height="200.000000pt" viewBox="0 0 200.000000 200.000000"
 preserveAspectRatio="xMidYMid meet">

<g transform="translate(0.000000,200.000000) scale(0.100000,-0.100000)"
fill="#000000" stroke="none">
<path d="M0 1000 l0 -1000 1000 0 1000 0 0 1000 0 1000 -1000 0 -1000 0 0
-1000z m989 662 c108 -60 305 -169 439 -242 l242 -133 0 -202 c0 -111 3 -229
6 -261 l6 -59 -216 -129 c-118 -70 -217 -134 -220 -141 -2 -7 -104 -73 -225
-145 l-221 -133 -227 126 -228 125 -6 304 c-4 166 -8 402 -9 523 l-4 220 220
132 c120 73 225 130 233 128 7 -3 102 -54 210 -113z"/>
<path d="M440 1155 l0 -95 30 0 c25 0 30 4 30 25 0 22 4 25 33 25 45 0 57 15
57 72 0 58 -14 68 -94 68 l-56 0 0 -95z m88 22 c2 -10 -3 -17 -12 -17 -10 0
-16 9 -16 21 0 24 23 21 28 -4z"/>
<path d="M620 1155 l0 -95 70 0 c68 0 70 1 70 25 0 23 -4 25 -40 25 -22 0 -40
5 -40 10 0 6 14 10 30 10 25 0 30 4 30 25 0 21 -5 25 -32 26 -31 2 -31 2 7 8
34 5 40 10 43 34 l3 27 -70 0 -71 0 0 -95z"/>
<path d="M790 1220 c0 -20 5 -30 15 -30 11 0 15 -11 15 -40 0 -29 -4 -40 -15
-40 -9 0 -15 -9 -15 -25 0 -24 2 -25 65 -25 63 0 65 1 65 25 0 18 -5 25 -20
25 -17 0 -20 7 -20 39 0 30 4 40 20 44 14 3 20 14 20 31 0 25 -2 26 -65 26
l-65 0 0 -30z"/>
<path d="M950 1222 c0 -15 6 -37 14 -48 12 -17 12 -22 0 -39 -8 -10 -14 -31
-14 -47 0 -24 4 -28 29 -28 25 0 30 4 33 28 2 16 9 27 18 27 9 0 16 -11 18
-27 3 -24 8 -28 33 -28 25 0 29 4 29 28 0 16 -6 37 -14 47 -12 17 -12 22 0 39
8 11 14 33 14 48 0 24 -4 28 -29 28 -24 0 -29 -5 -35 -31 -7 -37 -30 -34 -34
4 -3 22 -8 27 -33 27 -25 0 -29 -4 -29 -28z"/>
<path d="M1140 1220 c0 -20 5 -30 15 -30 11 0 15 -11 15 -40 0 -29 -4 -40 -15
-40 -9 0 -15 -9 -15 -25 0 -23 4 -25 45 -27 25 -1 53 -2 63 -2 11 -1 18 8 20
27 2 19 -1 27 -12 27 -12 0 -16 10 -16 40 0 29 4 40 15 40 10 0 15 10 15 30
l0 30 -65 0 -65 0 0 -30z"/>
<path d="M1302 1153 c3 -97 3 -98 28 -98 22 0 25 5 28 43 3 43 4 44 23 26 10
-9 19 -27 19 -40 0 -25 27 -39 54 -28 14 5 16 20 14 98 l-3 91 -30 0 c-22 0
-30 -5 -35 -23 l-5 -24 -24 26 c-14 14 -35 26 -48 26 -24 0 -24 -1 -21 -97z"/>
</g>
</svg>
