<svg xmlns="http://www.w3.org/2000/svg" xmlns:xlink="http://www.w3.org/1999/xlink" preserveAspectRatio="none" width="256" height="256" viewBox="0 0 256 256"><defs><path id="b" stroke="#000" stroke-width="8" stroke-linejoin="round" stroke-linecap="round" fill="none" d="M230.95 7.55q-7.15-5.25-16.65-6.1-9.15-.8-17.7 2.6-8.1 3.15-15.25 9.45-6.55 5.85-11.65 13.8-2.35 3.65-3.35 6.4-.65 1.85-.8 3.6-.2 1.75.2 3.4m-.65 3.2q1.35 1.3 2.9 2.3 4.7 3 11.35 3.35 6.45.3 15.5-2.4Q213 42.1 222.7 32.4q5.85-5.7 8.45-13.35 2-5.9 1.5-11.5m-68.9 35.75q-.55.1-1.55-1.25.8.65 1.55 1.25zm-1.55-1.25q1.05-.35 2.25-.8.05-1.95-.05-3.9-.6-9.95-6.25-19.65-4.75-8.1-11.35-13.15Q141.55.7 132.9.05q-8.45-.65-13.2 5.25-7.45 9.4-3 28.1-11.35-3.75-23.1-2.5-12.25 1.25-21.75 7.65Q62 45.2 57.2 56.4q-4.95 11.5-2.35 22.75 2.65 11.5 12.8 19 5.35 3.95-1.15 7.15-7.9 2-14.3 6-3.1 1.9-5.85 4.25-8.8 7.65-12.5 18.95-2.45 7.45-1.9 14.55.25 3.95 1.5 7.85 3.45 10.9 14.05 19.65 8.65 7.15 21.7 12.5 13.8 5.8 28.55 8.85 5.8 1.2 11.75 2 20.95 2.8 41.7.15 7.15-.9 13.75-2.55.1-.05.25-.05 15.95-4.1 28.85-12.6 20.85-13.8 24.9-34.45 3.75-18.95-9.1-36.05-4.95-6.55-10.8-10.9-9.45-6.95-10.55-11.7 5.65-2.75 8.35-7.1 3.6-5.95 1.35-13.65-2.1-7.25-8-12.1-5-4.1-12.65-6.7-3.45-1.2-9.7-5.75-1.95-1.45-4.1-3.15.6-.15.7-2.05.6-.25 1.3-.55M97.6 198.55q-1 .25-2.4 2.1"/><path id="c" stroke="#000" stroke-width="4" stroke-linejoin="round" stroke-linecap="round" fill="none" d="M165.75 40.7q8.6-3.75 22.7-13.25 16.45-11.15 26.4-13.9M147.2 111.9v.65m-32.7 18.2q.6 2.55 1.1 3.8 1.6 4.65 4.85 5.85 2.8 1.05 6-.25 5.05-1.95 9.05-8.05"/><path id="d" stroke="#000" stroke-width="12" stroke-linejoin="round" stroke-linecap="round" fill="none" d="M201.65 101.75q13.3-.65 20.9-.85 12.55-.25 21.55 3.9 7.4 3.45 9.65 8.75 1.7 3.8.6 8.45-.95 4.2-3.85 7.9-2.5 3-6.5 5.8-2.3 1.65-7.5 4.7M85 71.05q1.25-4.1 4.6-6.15 2.3-1.35 6.75-2.35 3.25-.7 5.2-.65m41.3-2q6-.15 12 1 3.15.85 4.25 1.5 2.25 1.6 2.25 3.65m-111.5 41.5q-2.7-3.5-8-5.1-3.6-1.05-10-1.55-6.05-.5-9.1-.35-5.1.25-8.65 2-8.1 3.9-12.25 15.85-3.4 10.05-.5 17.65 2.4 6.1 8.95 9.8 6 3.4 13.3 3.7m71.6 51.1q-5.65 8.85-7.3 19.4-1.65 10.65 1.05 20.75m76.15-40.75q3.35 2.8 5.8 7.6 1.7 3.35 3.7 9.6 2.45 7.6 3.4 11.8 1.5 6.65 1.35 12.1"/><path id="e" stroke="#000" stroke-width="24" stroke-linejoin="round" stroke-linecap="round" fill="none" d="M147.85 84.55q-1.2 3.8-.65 20.6m-44.85-20.6q-1.2 3.8-.65 20.6"/><path id="f" stroke="#FFF" stroke-width="6" stroke-linejoin="round" stroke-linecap="round" fill="none" d="M149.2 112.45l-1.05 1.35M94.6 79.65l3.4 5.7m43.1-9.6l.5 1.875 2.05 7.725m7.1 25.1l-1.55 2m-44.95-7.2l-.05 6.15"/><g id="a"><path fill="#FFDF7A" d="M163.75 43.3q-.55.1-1.55-1.25 1.05-.35 2.25-.8.05-1.95-.05-3.9-.6-9.95-6.25-19.65-4.75-8.1-11.35-13.15Q141.55.7 132.9.05q-8.45-.65-13.2 5.25-7.45 9.4-3 28.1-11.35-3.75-23.1-2.5-12.25 1.25-21.75 7.65Q62 45.2 57.2 56.4q-4.95 11.5-2.35 22.75 2.65 11.5 12.8 19 5.35 3.95-1.15 7.15-7.9 2-14.3 6-3.1 1.9-5.85 4.25-8.8 7.65-12.5 18.95-2.45 7.45-1.9 14.55.25 3.95 1.5 7.85 3.45 10.9 14.05 19.65 8.65 7.15 21.7 12.5 13.8 5.8 28.55 8.85 5.8 1.2 11.75 2 20.95 2.8 41.7.15 7.15-.9 13.75-2.55.1-.05.25-.05 15.95-4.1 28.85-12.6 20.85-13.8 24.9-34.45 3.75-18.95-9.1-36.05-4.95-6.55-10.8-10.9-9.45-6.95-10.55-11.7 5.65-2.75 8.35-7.1 3.6-5.95 1.35-13.65-2.1-7.25-8-12.1-5-4.1-12.65-6.7-3.45-1.2-9.7-5.75-1.95-1.45-4.1-3.15m22.25 86q-1.75 2.85-7.3 5.05-12.35 4.8-20.95 2.75-2.9-.7-5-2.25-2.4-1.8-3-4.25-.65-2.9 1.2-6.2 4.1-7.35 16.05-9.65 9.4-1.6 14.75 1.6 3.4 2.05 4.75 5.8 1.45 4-.5 7.15m-23.15-38.8q1.85 7.6-.1 13.2-1.15 3.3-3.55 5.7-2.55 2.5-5.75 3.1-2.071.422-4.25-.05l-1.05 1.35 1.05-1.35q-.675-.129-1.35-.35-.35-.1-.65-.2-2.4-.9-4.35-2.6-3.85-3.4-5.95-9.65-1.45-4.4-1.4-8.65.05-4.6 1.95-8.35 1.4-2.8 3.75-4.7.198-.166.4-.35l-.5-1.85.5 1.85q2.285-1.736 4.95-2.15 2.9-.45 5.95.75 2.8 1.15 5 3.45 3.7 4.05 5.35 10.85M85 71.05q1.25-4.1 4.6-6.15 2.3-1.35 6.75-2.35 3.25-.7 5.2-.65-1.95-.05-5.2.65-4.45 1-6.75 2.35-3.35 2.05-4.6 6.15M89.75 91q.05-4.6 1.95-8.35 1.4-2.8 3.75-4.7 2.45-2.05 5.35-2.5 2.9-.45 5.95.75 2.8 1.15 5 3.45 3.7 4.05 5.35 10.85 1.85 7.6-.1 13.2-1.15 3.3-3.55 5.7-2.55 2.5-5.75 3.1-2.7.55-5.6-.4-2.75-.85-5-2.8-3.85-3.4-5.95-9.65-1.45-4.4-1.4-8.65m53.1-31.1q6-.15 12 1 3.15.85 4.25 1.5 2.25 1.6 2.25 3.65 0-2.05-2.25-3.65-1.1-.65-4.25-1.5-6-1.15-12-1m-70.6 64.2q3.4-2.7 4.8-3.65 2.8-1.9 5.3-2.85 3-1.15 5.95-1.05 3.25.05 5.65 1.65.65.4 1.85 1.4 1.15.95 1.8 1.35.25.15 3.75 1.7 2.25.95 3.1 2.3 1.2 1.85.25 4.3-.9 2.3-2.95 3.55-1.7 1.05-4.3 1.5-.75.15-4.65.6-3.7.6-5.55.85-3.25.45-5.55.45-6.55.1-10.25-3.45-1.2-1.1-1.75-2.4-.65-1.5-.25-2.85.5-1.5 2.8-3.4m54.2 16.05q5.05-1.95 9.05-8.05-4 6.1-9.05 8.05-3.2 1.3-6 .25-3.25-1.2-4.85-5.85-.5-1.25-1.1-3.8.6 2.55 1.1 3.8 1.6 4.65 4.85 5.85 2.8 1.05 6-.25z"/><path fill="#FFA4A2" d="M77.05 120.45q-1.4.95-4.8 3.65-2.3 1.9-2.8 3.4-.4 1.35.25 2.85.55 1.3 1.75 2.4 3.7 3.55 10.25 3.45 2.3 0 5.55-.45 1.85-.25 5.55-.85 3.9-.45 4.65-.6 2.6-.45 4.3-1.5 2.05-1.25 2.95-3.55.95-2.45-.25-4.3-.85-1.35-3.1-2.3-3.5-1.55-3.75-1.7-.65-.4-1.8-1.35-1.2-1-1.85-1.4-2.4-1.6-5.65-1.65-2.95-.1-5.95 1.05-2.5.95-5.3 2.85m101.65 13.9q5.55-2.2 7.3-5.05 1.95-3.15.5-7.15-1.35-3.75-4.75-5.8-5.35-3.2-14.75-1.6-11.95 2.3-16.05 9.65-1.85 3.3-1.2 6.2.6 2.45 3 4.25 2.1 1.55 5 2.25 8.6 2.05 20.95-2.75z"/><path fill="#FFF" d="M91.7 82.65Q89.8 86.4 89.75 91q-.05 4.25 1.4 8.65 2.1 6.25 5.95 9.65 2.25 1.95 5 2.8 2.9.95 5.6.4 3.2-.6 5.75-3.1 2.4-2.4 3.55-5.7 1.95-5.6.1-13.2-1.65-6.8-5.35-10.85-2.2-2.3-5-3.45-3.05-1.2-5.95-.75-2.9.45-5.35 2.5-2.35 1.9-3.75 4.7m2.9-3l3.4 5.7-3.4-5.7m9.65 25.6l-.05 6.15.05-6.15m-1.9-20.7q-1.2 3.8-.65 20.6-.55-16.8.65-20.6m60.4 19.15q1.95-5.6.1-13.2-1.65-6.8-5.35-10.85-2.2-2.3-5-3.45-3.05-1.2-5.95-.75-2.665.414-4.95 2.15l2.05 7.75-2.05-7.75q-.202.184-.4.35-2.35 1.9-3.75 4.7-1.9 3.75-1.95 8.35-.05 4.25 1.4 8.65 2.1 6.25 5.95 9.65 1.95 1.7 4.35 2.6.3.1.65.2.675.221 1.35.35l1.55-2-1.55 2q2.179.472 4.25.05 3.2-.6 5.75-3.1 2.4-2.4 3.55-5.7m-14.9-19.15q-1.2 3.8-.65 20.6-.55-16.8.65-20.6z"/><path fill="#9C0" d="M232.65 7.55h-1.7q-7.15-5.25-16.65-6.1-9.15-.8-17.7 2.6-8.1 3.15-15.25 9.45-6.55 5.85-11.65 13.8-2.35 3.65-3.35 6.4-.65 1.85-.8 3.6-.2 1.75.2 3.4 8.6-3.75 22.7-13.25 16.45-11.15 26.4-13.9-9.95 2.75-26.4 13.9-14.1 9.5-22.7 13.25l-.65 3.2q1.35 1.3 2.9 2.3 4.7 3 11.35 3.35 6.45.3 15.5-2.4Q213 42.1 222.7 32.4q5.85-5.7 8.45-13.35 2-5.9 1.5-11.5z"/></g></defs><g transform="translate(13.55 22.25) scale(.89276)"><use xlink:href="#a"/><use xlink:href="#b"/><use xlink:href="#c"/><use xlink:href="#d"/><use xlink:href="#e"/><use xlink:href="#f"/></g></svg>